<svg width="100" height="100" viewBox="0 0 100 100" xmlns="http://www.w3.org/2000/svg">
  <!-- Outer blue circle -->
  <circle cx="50" cy="50" r="48" fill="none" stroke="#2563eb" stroke-width="4"/>
  
  <!-- Inner white background -->
  <circle cx="50" cy="50" r="40" fill="white"/>
  
  <!-- Left building/tower -->
  <rect x="20" y="25" width="12" height="35" fill="#2563eb"/>
  <rect x="22" y="27" width="8" height="8" fill="white"/>
  <rect x="22" y="37" width="8" height="8" fill="white"/>
  <rect x="22" y="47" width="8" height="8" fill="white"/>
  
  <!-- Right building/tower -->
  <rect x="68" y="25" width="12" height="35" fill="#2563eb"/>
  <rect x="70" y="27" width="8" height="8" fill="white"/>
  <rect x="70" y="37" width="8" height="8" fill="white"/>
  <rect x="70" y="47" width="8" height="8" fill="white"/>
  
  <!-- Handshake in center -->
  <g transform="translate(50,45)">
    <!-- Left hand/arm -->
    <path d="M-15,-5 Q-10,-8 -5,-5 L0,0 L-5,5 Q-10,8 -15,5 Z" fill="#4b5563"/>
    
    <!-- Right hand/arm -->
    <path d="M15,-5 Q10,-8 5,-5 L0,0 L5,5 Q10,8 15,5 Z" fill="#4b5563"/>
    
    <!-- Handshake connection -->
    <ellipse cx="0" cy="0" rx="3" ry="2" fill="#6b7280"/>
  </g>
  
  <!-- Base/foundation -->
  <rect x="15" y="60" width="70" height="8" fill="#374151" rx="2"/>
</svg>
